<svg xmlns="http://www.w3.org/2000/svg" viewBox="0 0 67.38912 66.02907">
  <defs>
    <style>
      .cls-1 {
        fill: #94cfe5;
      }
    </style>
  </defs>
  <g id="Layer_2" data-name="Layer 2">
    <g id="Layer_1-2" data-name="Layer 1">
      <path class="cls-1" d="M61.57186,20.33846c-.18005-.34009-.38-.66016-.56994-.99a37.18914,37.18914,0,0,0-3.11011-6.91015,24.27467,24.27467,0,0,0-4.81995-5.51,19.53014,19.53014,0,0,0-7.09-3.81006c-9.07007-5.13989-20.48-3.69971-28.8,2.66016a31.86573,31.86573,0,0,0-3.66,3.31006c-1.45,1.5498-2.9,3.11987-4.29993,4.73q-1.03509.90014-2.01,1.91992a24.92275,24.92275,0,0,0-6.66,13.6101,23.27643,23.27643,0,0,0,1.12,13.7898,16.56949,16.56949,0,0,0,5.54,6.99023c2.78,2.02979,6.05994,3.25,9.22,4.54.92993.37989,1.85.75977,2.78,1.1399a71.04876,71.04876,0,0,0,9.88989,7.15991c2.76,1.62012,5.75,3.03,9.01,3.06006a19.48242,19.48242,0,0,0,8.3-2.21c.32007-.14991.64-.31006.96-.47a17.58245,17.58245,0,0,0,2.52-.2102,15.63253,15.63253,0,0,0,8.5-4.71973c4.66-4.63012,8.16-10.67016,8.87012-17.27C68.05184,33.84846,65.04183,26.59846,61.57186,20.33846Zm-48.6,30.8999A19.54143,19.54143,0,0,1,5.3818,45.86824a16.5799,16.5799,0,0,1-3.25-7.62988,29.52933,29.52933,0,0,0,5.49,6.68017c2.46,2.43994,4.93005,4.8899,7.47,7.23975C14.3818,51.85847,13.67184,51.54842,12.97189,51.23836Zm3.29-42.25a27.26757,27.26757,0,0,1,13.32983-6.8,22.357,22.357,0,0,1,6.95007-.26978A30.34506,30.34506,0,0,0,25.24191,4.63826C22.24191,6.00838,19.18185,7.36824,16.26193,8.98836ZM51.1318,43.09846a1.18219,1.18219,0,0,1-1.17993,1.17994H19.86178a1.18219,1.18219,0,0,1-1.17993-1.17994V24.6783a1.1725,1.1725,0,0,1-.12-1.36987,1.30571,1.30571,0,0,1,.37-.37012,1.14588,1.14588,0,0,1,.92993-.49H49.95187a1.18224,1.18224,0,0,1,1.17993,1.18017Zm9.18005,10.3a23.51413,23.51413,0,0,1-6.81994,6.54981,10.23143,10.23143,0,0,1-1.69007.77,26.82222,26.82222,0,0,0,8.97-10.08985c2.29-4.71,2.86-10.04,2.80993-15.14013a59.68242,59.68242,0,0,0-.7-8.37989,36.15414,36.15414,0,0,1,2.37012,8.10987C66.30184,41.7784,64.20187,48.12849,60.31185,53.39851Zm-25.41-18.8601a1.10356,1.10356,0,0,1-.61-.17017l-13.25-8.1499V41.91853h27.73V25.88826l-13.23,8.47021A1.21609,1.21609,0,0,1,34.90182,34.53841Zm11.17993-9.73H23.25192l11.63989,7.15991Z"/>
    </g>
  </g>
</svg>
