<svg xmlns="http://www.w3.org/2000/svg" viewBox="0 0 67.38912 66.02907">
  <defs>
    <style>
      .cls-1 {
        fill: #94cfe5;
      }
    </style>
  </defs>
  <g id="Layer_2" data-name="Layer 2">
    <g id="Layer_1-2" data-name="Layer 1">
      <path class="cls-1" d="M61.57186,20.33846c-.18005-.34009-.38-.66016-.56994-.99a37.18914,37.18914,0,0,0-3.11011-6.91015,24.27467,24.27467,0,0,0-4.81995-5.51,19.53014,19.53014,0,0,0-7.09-3.81006c-9.07007-5.13989-20.48-3.69971-28.8,2.66016a31.86573,31.86573,0,0,0-3.66,3.31006c-1.45,1.5498-2.9,3.11987-4.29993,4.73q-1.03509.90014-2.01,1.91992a24.92275,24.92275,0,0,0-6.66,13.6101,23.27643,23.27643,0,0,0,1.12,13.7898,16.56949,16.56949,0,0,0,5.54,6.99023c2.78,2.02979,6.05994,3.25,9.22,4.54.92993.37989,1.85.75977,2.78,1.1399a71.04876,71.04876,0,0,0,9.88989,7.15991c2.76,1.62012,5.75,3.03,9.01,3.06006a19.48242,19.48242,0,0,0,8.3-2.21c.32007-.14991.64-.31006.96-.47a17.58245,17.58245,0,0,0,2.52-.2102,15.63253,15.63253,0,0,0,8.5-4.71973c4.66-4.63012,8.16-10.67016,8.87012-17.27C68.05184,33.84846,65.04183,26.59846,61.57186,20.33846Zm-48.6,30.8999A19.54143,19.54143,0,0,1,5.3818,45.86824a16.5799,16.5799,0,0,1-3.25-7.62988,29.52933,29.52933,0,0,0,5.49,6.68017c2.46,2.43994,4.93005,4.8899,7.47,7.23975C14.3818,51.85847,13.67184,51.54842,12.97189,51.23836Zm13.6-7.62989h-6.38V24.25838h6.38Zm-3.21008-22.05a3.35445,3.35445,0,0,1-3.40991-4.49,3.62509,3.62509,0,0,1,4.06006-2.18018,3.329,3.329,0,0,1,3.0199,3.51025A3.37614,3.37614,0,0,1,23.36178,21.55843ZM25.24191,4.63826c-3,1.37012-6.06006,2.73-8.98,4.3501a27.26757,27.26757,0,0,1,13.32983-6.8,22.357,22.357,0,0,1,6.95007-.26978A30.34506,30.34506,0,0,0,25.24191,4.63826Zm24.66992,38.7002c0,.06982-.01.13989-.02.26H43.45187v-.62011c0-3.18994.01-6.37989-.01-9.57984a8.59009,8.59009,0,0,0-.23-2.09008,3.16949,3.16949,0,0,0-5.38013-1.52,3.73888,3.73888,0,0,0-1.17993,2.84008c.01,3.44,0,6.87989,0,10.30982v.67016H30.22189V24.25838h6.3999v2.6499c.18005-.2.26-.27979.33008-.36987a6.54693,6.54693,0,0,1,6.53-2.72,6.41321,6.41321,0,0,1,5.72,4.46,11.131,11.131,0,0,1,.66992,3.47C49.96188,35.60847,49.91183,39.47835,49.91183,43.33846Zm10.4,10.06005a23.51413,23.51413,0,0,1-6.81994,6.54981,10.23143,10.23143,0,0,1-1.69007.77,26.82222,26.82222,0,0,0,8.97-10.08985c2.29-4.71,2.86-10.04,2.80993-15.14013a59.68242,59.68242,0,0,0-.7-8.37989,36.15414,36.15414,0,0,1,2.37012,8.10987C66.30184,41.7784,64.20187,48.12849,60.31185,53.39851Z"/>
    </g>
  </g>
</svg>
