<svg xmlns="http://www.w3.org/2000/svg" viewBox="0 0 209.80176 15.47949">
  <g id="Layer_2" data-name="Layer 2">
    <g id="Layer_1-2" data-name="Layer 1">
      <g>
        <path d="M1.70215,11.332a3.06306,3.06306,0,0,1-1.22266-.96A2.3883,2.3883,0,0,1,0,9.01465H1.76953a1.20862,1.20862,0,0,0,.50195.87793,1.83065,1.83065,0,0,0,1.14844.35254,1.93531,1.93531,0,0,0,1.11719-.27735.83719.83719,0,0,0,.39746-.71289.733.733,0,0,0-.44238-.69043,8.41253,8.41253,0,0,0-1.40235-.49511A13.56217,13.56217,0,0,1,1.57422,7.5752,2.65894,2.65894,0,0,1,.5625,6.83984,1.92475,1.92475,0,0,1,.13477,5.53516a2.03175,2.03175,0,0,1,.39062-1.208,2.5901,2.5901,0,0,1,1.11719-.86231,4.17107,4.17107,0,0,1,1.67187-.31543,3.4618,3.4618,0,0,1,2.27344.71289,2.56073,2.56073,0,0,1,.92188,1.94239h-1.71a1.21956,1.21956,0,0,0-.45019-.88477,1.68276,1.68276,0,0,0-1.09473-.33008,1.77646,1.77646,0,0,0-1.03515.25489.78969.78969,0,0,0-.36035.6748.73122.73122,0,0,0,.24023.55567,1.72456,1.72456,0,0,0,.585.35253q.34424.12745,1.02051.32227a11.10642,11.10642,0,0,1,1.47656.4873,2.75379,2.75379,0,0,1,.99805.72754,1.93384,1.93384,0,0,1,.43554,1.27539A2.14058,2.14058,0,0,1,6.22461,10.5a2.57991,2.57991,0,0,1-1.10254.87012,4.11045,4.11045,0,0,1-1.67285.31445A4.1542,4.1542,0,0,1,1.70215,11.332Z"/>
        <path d="M15.94434,3.28516V11.5498h-1.71v-.9746a2.76135,2.76135,0,0,1-1.05762.80175,3.34724,3.34724,0,0,1-1.3877.293,3.69655,3.69655,0,0,1-1.74707-.40527,2.91752,2.91752,0,0,1-1.21484-1.2002,3.88081,3.88081,0,0,1-.44238-1.91992V3.28516h1.69531V7.88965a2.39584,2.39584,0,0,0,.55469,1.70312,1.97491,1.97491,0,0,0,1.51464.5918,2.00134,2.00134,0,0,0,1.52247-.5918,2.38068,2.38068,0,0,0,.5625-1.70312V3.28516Z"/>
        <path d="M21.08984,3.54a3.61977,3.61977,0,0,1,1.69434-.39063,3.75037,3.75037,0,0,1,3.375,2.02539,4.63,4.63,0,0,1,.51074,2.20508,4.7663,4.7663,0,0,1-.51074,2.22754,3.81231,3.81231,0,0,1-1.40234,1.53028,3.69682,3.69682,0,0,1-1.97266.54687,3.58409,3.58409,0,0,1-1.67969-.38184,3.78407,3.78407,0,0,1-1.20019-.95312v5.12988h-1.71V3.28516h1.71V4.5A3.47617,3.47617,0,0,1,21.08984,3.54Zm3.48633,2.3623a2.41845,2.41845,0,0,0-.92969-.94531,2.49693,2.49693,0,0,0-1.2373-.32226,2.42672,2.42672,0,0,0-1.22168.33007,2.4546,2.4546,0,0,0-.93066.96,2.98932,2.98932,0,0,0-.35254,1.48536,3.03169,3.03169,0,0,0,.35254,1.49218,2.43993,2.43993,0,0,0,2.15234,1.29786,2.41371,2.41371,0,0,0,1.2373-.3379,2.48269,2.48269,0,0,0,.92969-.98242,3.0735,3.0735,0,0,0,.35352-1.5A2.94641,2.94641,0,0,0,24.57617,5.90234Z"/>
        <path d="M28.4541,1.875a1.05956,1.05956,0,0,1-.31543-.78027A1.06113,1.06113,0,0,1,28.4541.31445,1.05875,1.05875,0,0,1,29.23438,0,1.04062,1.04062,0,0,1,29.999.31445a1.06113,1.06113,0,0,1,.31543.78028A1.05956,1.05956,0,0,1,29.999,1.875a1.04062,1.04062,0,0,1-.76464.31445A1.05875,1.05875,0,0,1,28.4541,1.875Zm1.62012,1.41016V11.5498h-1.71V3.28516Z"/>
        <path d="M34.31934,4.67969V9.25488a.87518.87518,0,0,0,.21777.667,1.07634,1.07634,0,0,0,.74219.20312h1.0498v1.4248H34.97852a2.60008,2.60008,0,0,1-1.76954-.54,2.2259,2.2259,0,0,1-.61523-1.75489V4.67969h-.97461V3.28516h.97461V1.22949h1.72559V3.28516H36.3291V4.67969Z"/>
        <path d="M37.85156,5.167A3.68942,3.68942,0,0,1,39.28418,3.6748a4.57782,4.57782,0,0,1,4.583.1875,3.50661,3.50661,0,0,1,1.32715,2.03223H43.34961a1.95987,1.95987,0,0,0-.7207-.96,2.12741,2.12741,0,0,0-1.24414-.34473,2.06894,2.06894,0,0,0-1.67286.74219,3.142,3.142,0,0,0-.62207,2.07813,3.17257,3.17257,0,0,0,.62207,2.085,2.0607,2.0607,0,0,0,1.67286.75,1.89806,1.89806,0,0,0,1.96484-1.30567h1.84473a3.69341,3.69341,0,0,1-1.35059,2.00293,3.98143,3.98143,0,0,1-2.459.74219,4.09358,4.09358,0,0,1-2.10059-.53223,3.73433,3.73433,0,0,1-1.43262-1.5A4.68769,4.68769,0,0,1,37.334,7.41016,4.689,4.689,0,0,1,37.85156,5.167Z"/>
        <path d="M52.86621,3.55469a2.87884,2.87884,0,0,1,1.16992,1.20019,4.00287,4.00287,0,0,1,.42774,1.91992v4.875H52.76953V6.92969a2.39645,2.39645,0,0,0-.55566-1.70215,1.97349,1.97349,0,0,0-1.51465-.59277,1.99913,1.99913,0,0,0-1.52344.59277,2.37655,2.37655,0,0,0-.5625,1.70215V11.5498h-1.709V.4502h1.709V4.24512a2.87567,2.87567,0,0,1,1.10352-.81055,3.68952,3.68952,0,0,1,1.46191-.28516A3.4723,3.4723,0,0,1,52.86621,3.55469Z"/>
        <path d="M56.58594,5.1748a3.77373,3.77373,0,0,1,3.38281-2.02539,3.61463,3.61463,0,0,1,1.70313.38282,3.46857,3.46857,0,0,1,1.1621.95215V3.28516h1.72461V11.5498H62.834V10.31934a3.39926,3.39926,0,0,1-1.18554.97558,3.83875,3.83875,0,0,1-3.66016-.15722,3.88929,3.88929,0,0,1-1.40234-1.53028,4.71067,4.71067,0,0,1-.51758-2.22754A4.57627,4.57627,0,0,1,56.58594,5.1748Zm5.89453.75a2.468,2.468,0,0,0-.92188-.96,2.41653,2.41653,0,0,0-1.23047-.33007,2.42482,2.42482,0,0,0-2.15234,1.26757,2.95618,2.95618,0,0,0-.35156,1.47754,3.08375,3.08375,0,0,0,.35156,1.5,2.48946,2.48946,0,0,0,.92969.98242,2.41918,2.41918,0,0,0,2.45312.00782,2.45733,2.45733,0,0,0,.92188-.96778A3.03209,3.03209,0,0,0,62.834,7.41016,2.98969,2.98969,0,0,0,62.48047,5.9248Z"/>
        <path d="M66.71875,11.33984a1.09526,1.09526,0,0,1,.7793-1.875,1.0384,1.0384,0,0,1,.76562.31543,1.12409,1.12409,0,0,1,0,1.55957,1.04213,1.04213,0,0,1-.76562.31543A1.05891,1.05891,0,0,1,66.71875,11.33984Z"/>
        <path d="M72.419,4.67969V9.25488a.87518.87518,0,0,0,.21777.667,1.07634,1.07634,0,0,0,.74219.20312h1.0498v1.4248H73.07812a2.60007,2.60007,0,0,1-1.76953-.54,2.2259,2.2259,0,0,1-.61523-1.75489V4.67969h-.97461V3.28516h.97461V1.22949H72.419V3.28516h2.00976V4.67969Z"/>
        <path d="M78.71094,3.502a2.959,2.959,0,0,1,1.47754-.35254V4.91992h-.43457a2.08678,2.08678,0,0,0-1.52344.50977,2.43973,2.43973,0,0,0-.51758,1.77051v4.3496h-1.709V3.28516h1.709V4.48438A2.68964,2.68964,0,0,1,78.71094,3.502Z"/>
        <path d="M89.27832,8.05469H82.96289a2.29332,2.29332,0,0,0,.73535,1.58984,2.31879,2.31879,0,0,0,1.62012.60059,1.99832,1.99832,0,0,0,1.94922-1.15528h1.8457A3.72449,3.72449,0,0,1,87.75586,10.957a3.98183,3.98183,0,0,1-2.4375.72754,4.21806,4.21806,0,0,1-2.123-.53223,3.78432,3.78432,0,0,1-1.46972-1.5,4.58241,4.58241,0,0,1-.53223-2.24218A4.67757,4.67757,0,0,1,81.71094,5.167,3.64346,3.64346,0,0,1,83.166,3.6748a4.33251,4.33251,0,0,1,2.15234-.52539,4.21408,4.21408,0,0,1,2.085.51075,3.59779,3.59779,0,0,1,1.4248,1.43261,4.31269,4.31269,0,0,1,.50977,2.12207A5.34638,5.34638,0,0,1,89.27832,8.05469ZM87.55273,6.6748a1.94525,1.94525,0,0,0-.67382-1.51464,2.41961,2.41961,0,0,0-1.63575-.57032,2.19373,2.19373,0,0,0-1.51464.5625,2.35208,2.35208,0,0,0-.75,1.52246Z"/>
        <path d="M98.5332,8.05469H92.21875a2.28446,2.28446,0,0,0,.73437,1.58984,2.3188,2.3188,0,0,0,1.62012.60059,2.00148,2.00148,0,0,0,1.9502-1.15528h1.84472A3.71875,3.71875,0,0,1,97.01074,10.957a3.98183,3.98183,0,0,1-2.4375.72754,4.21182,4.21182,0,0,1-2.12207-.53223,3.79312,3.79312,0,0,1-1.4707-1.5,4.57178,4.57178,0,0,1-.53223-2.24218,4.7,4.7,0,0,1,.5166-2.24317A3.64956,3.64956,0,0,1,92.41992,3.6748a4.33891,4.33891,0,0,1,2.15332-.52539,4.21144,4.21144,0,0,1,2.085.51075A3.604,3.604,0,0,1,98.083,5.09277a4.31321,4.31321,0,0,1,.51074,2.12207A5.45841,5.45841,0,0,1,98.5332,8.05469ZM96.80859,6.6748a1.95,1.95,0,0,0-.67578-1.51464,2.41176,2.41176,0,0,0-1.63476-.57032,2.19789,2.19789,0,0,0-1.51563.5625,2.35218,2.35218,0,0,0-.75,1.52246Z"/>
        <path d="M110.92285,2.49023A4.44341,4.44341,0,0,1,112.82031,4.252a5.17721,5.17721,0,0,1,.65235,2.63282,6.44541,6.44541,0,0,1-.41211,2.29492,4.43759,4.43759,0,0,1-1.18555,1.78515,2.64563,2.64563,0,0,1-1.82227.69043,1.91142,1.91142,0,0,1-1.19921-.33789,1.46128,1.46128,0,0,1-.541-.95215,3.3907,3.3907,0,0,1-2.63965,1.29,2.3555,2.3555,0,0,1-1.80762-.69824,2.66694,2.66694,0,0,1-.65234-1.89746,4.88988,4.88988,0,0,1,.47266-2.12988,3.94594,3.94594,0,0,1,1.32812-1.582,3.28535,3.28535,0,0,1,1.91992-.59278,1.95362,1.95362,0,0,1,1.83008.88477l.13477-.75h1.48437l-.75,4.29a4.09738,4.09738,0,0,0-.04492.55469.91112.91112,0,0,0,.1582.585.68476.68476,0,0,0,.5625.19531,1.17975,1.17975,0,0,0,.97461-.5625,3.96933,3.96933,0,0,0,.60742-1.3877A6.73065,6.73065,0,0,0,112.09277,6.96a3.72528,3.72528,0,0,0-1.11035-2.91016,4.64978,4.64978,0,0,0-3.22461-1.00488,6.05537,6.05537,0,0,0-3.17187.83985,5.91834,5.91834,0,0,0-2.19727,2.30957,6.75125,6.75125,0,0,0-.7959,3.2705,3.69211,3.69211,0,0,0,1.13965,2.92481,4.77012,4.77012,0,0,0,3.25586,1.00488,5.57944,5.57944,0,0,0,2.49024-.52441l.2246,1.13965a7.70088,7.70088,0,0,1-3.06054.585,6.32911,6.32911,0,0,1-2.86524-.61524,4.509,4.509,0,0,1-1.90429-1.74707,5.04272,5.04272,0,0,1-.67578-2.63281,7.83852,7.83852,0,0,1,.998-3.915,7.36089,7.36089,0,0,1,2.76758-2.79687,7.82561,7.82561,0,0,1,4.00488-1.02832A6.46221,6.46221,0,0,1,110.92285,2.49023ZM107.3457,9.96777a2.56669,2.56669,0,0,0,.81739-.97558,2.888,2.888,0,0,0,.2998-1.29785,1.73062,1.73062,0,0,0-.39746-1.17676,1.39973,1.39973,0,0,0-1.11816-.458,1.74032,1.74032,0,0,0-1.13184.39746,2.57724,2.57724,0,0,0-.75,1.02735,3.4069,3.4069,0,0,0-.2627,1.32031,1.68186,1.68186,0,0,0,.34571,1.11719,1.28882,1.28882,0,0,0,1.04883.41308A1.93816,1.93816,0,0,0,107.3457,9.96777Z"/>
        <path d="M121.61035,3.55469a2.87884,2.87884,0,0,1,1.16992,1.20019A4.00287,4.00287,0,0,1,123.208,6.6748v4.875h-1.69434V6.92969a2.39645,2.39645,0,0,0-.55566-1.70215,1.97349,1.97349,0,0,0-1.51465-.59277,1.99913,1.99913,0,0,0-1.52344.59277,2.37655,2.37655,0,0,0-.5625,1.70215V11.5498h-1.709V.4502h1.709V4.24512a2.87567,2.87567,0,0,1,1.10352-.81055,3.68952,3.68952,0,0,1,1.46191-.28516A3.4723,3.4723,0,0,1,121.61035,3.55469Z"/>
        <path d="M126.85352,11.15234a3.83125,3.83125,0,0,1-1.48633-1.5,4.53208,4.53208,0,0,1-.53907-2.24218,4.43689,4.43689,0,0,1,.55469-2.23536,3.82681,3.82681,0,0,1,1.51563-1.5,4.63945,4.63945,0,0,1,4.28906,0,3.83935,3.83935,0,0,1,1.51562,1.5,4.44675,4.44675,0,0,1,.55469,2.23536,4.33415,4.33415,0,0,1-.57031,2.23437,3.93954,3.93954,0,0,1-1.55273,1.50781,4.46533,4.46533,0,0,1-2.167.53223A4.22122,4.22122,0,0,1,126.85352,11.15234Zm3.35156-1.26757a2.40438,2.40438,0,0,0,.9375-.94532,3.03392,3.03392,0,0,0,.36035-1.52929,3.10525,3.10525,0,0,0-.34473-1.52246,2.32832,2.32832,0,0,0-.916-.9375,2.49694,2.49694,0,0,0-1.22949-.31543,2.45694,2.45694,0,0,0-1.22168.31543,2.24055,2.24055,0,0,0-.89258.9375,3.207,3.207,0,0,0-.33008,1.52246,2.90062,2.90062,0,0,0,.68164,2.0625,2.25755,2.25755,0,0,0,1.71777.72754A2.54289,2.54289,0,0,0,130.20508,9.88477Z"/>
        <path d="M136.94727,4.67969V9.25488a.87518.87518,0,0,0,.21777.667,1.07922,1.07922,0,0,0,.74316.20312H138.957v1.4248h-1.34961a2.60007,2.60007,0,0,1-1.76953-.54,2.22587,2.22587,0,0,1-.61523-1.75489V4.67969h-.97461V3.28516h.97461V1.22949h1.72461V3.28516H138.957V4.67969Z"/>
        <path d="M152.28516,3.55469A2.92336,2.92336,0,0,1,153.5,4.75488a3.89414,3.89414,0,0,1,.44336,1.91992v4.875h-1.69531V6.92969a2.40059,2.40059,0,0,0-.55469-1.70215,2.24275,2.24275,0,0,0-3.03809,0,2.37655,2.37655,0,0,0-.5625,1.70215V11.5498h-1.69433V6.92969a2.39641,2.39641,0,0,0-.55567-1.70215,1.97348,1.97348,0,0,0-1.51465-.59277,1.99912,1.99912,0,0,0-1.52343.59277,2.37655,2.37655,0,0,0-.5625,1.70215V11.5498h-1.709V3.28516h1.709v.94433a2.84743,2.84743,0,0,1,1.06543-.79492,3.38609,3.38609,0,0,1,1.37988-.28516,3.678,3.678,0,0,1,1.76953.41993,2.8796,2.8796,0,0,1,1.20117,1.21582,2.76432,2.76432,0,0,1,1.16992-1.19239,3.45762,3.45762,0,0,1,1.709-.44336A3.715,3.715,0,0,1,152.28516,3.55469Z"/>
        <path d="M156.06445,5.1748a3.77376,3.77376,0,0,1,3.38282-2.02539,3.61458,3.61458,0,0,1,1.70312.38282,3.46861,3.46861,0,0,1,1.16211.95215V3.28516h1.72461V11.5498H162.3125V10.31934a3.39939,3.39939,0,0,1-1.18555.97558,3.83873,3.83873,0,0,1-3.66015-.15722,3.88931,3.88931,0,0,1-1.40235-1.53028,4.71078,4.71078,0,0,1-.51757-2.22754A4.57638,4.57638,0,0,1,156.06445,5.1748Zm5.89453.75a2.468,2.468,0,0,0-.92187-.96,2.41653,2.41653,0,0,0-1.23047-.33007,2.42482,2.42482,0,0,0-2.15234,1.26757,2.95608,2.95608,0,0,0-.35157,1.47754,3.08364,3.08364,0,0,0,.35157,1.5,2.4895,2.4895,0,0,0,.92968.98242,2.4192,2.4192,0,0,0,2.45313.00782,2.45731,2.45731,0,0,0,.92187-.96778,3.032,3.032,0,0,0,.35352-1.49218A2.98959,2.98959,0,0,0,161.959,5.9248Z"/>
        <path d="M166.377,1.875a1.05874,1.05874,0,0,1-.31445-.78027A1.07428,1.07428,0,0,1,167.15723,0a1.04066,1.04066,0,0,1,.76465.31445,1.05737,1.05737,0,0,1,.31542.78028,1.05581,1.05581,0,0,1-.31542.78027,1.04066,1.04066,0,0,1-.76465.31445A1.0603,1.0603,0,0,1,166.377,1.875Zm1.62012,1.41016V11.5498h-1.71V3.28516Z"/>
        <path d="M171.957.4502V11.5498h-1.71V.4502Z"/>
        <path d="M174.11719,11.33984a1.09526,1.09526,0,0,1,.77929-1.875,1.03841,1.03841,0,0,1,.76563.31543,1.12409,1.12409,0,0,1,0,1.55957,1.04214,1.04214,0,0,1-.76563.31543A1.05889,1.05889,0,0,1,174.11719,11.33984Z"/>
        <path d="M177.76953,5.167a3.68713,3.68713,0,0,1,1.43164-1.49219,4.57782,4.57782,0,0,1,4.583.1875,3.50193,3.50193,0,0,1,1.32715,2.03223H183.2666a1.95238,1.95238,0,0,0-.71972-.96,2.13061,2.13061,0,0,0-1.24512-.34473,2.07025,2.07025,0,0,0-1.67285.74219,3.14723,3.14723,0,0,0-.62207,2.07813,3.17791,3.17791,0,0,0,.62207,2.085,2.062,2.062,0,0,0,1.67285.75,1.89731,1.89731,0,0,0,1.96484-1.30567h1.84473a3.69189,3.69189,0,0,1-1.34961,2.00293,3.98439,3.98439,0,0,1-2.46.74219,4.0961,4.0961,0,0,1-2.10059-.53223,3.732,3.732,0,0,1-1.43164-1.5,4.67638,4.67638,0,0,1-.51758-2.24218A4.67769,4.67769,0,0,1,177.76953,5.167Z"/>
        <path d="M188.292,11.15234a3.82885,3.82885,0,0,1-1.48535-1.5,4.53257,4.53257,0,0,1-.54-2.24218,4.42727,4.42727,0,0,1,.55567-2.23536,3.83072,3.83072,0,0,1,1.51464-1.5,4.64145,4.64145,0,0,1,4.29,0,3.837,3.837,0,0,1,1.51465,1.5,4.43728,4.43728,0,0,1,.55567,2.23536,4.34359,4.34359,0,0,1-.57032,2.23437,3.95231,3.95231,0,0,1-1.55273,1.50781,4.46638,4.46638,0,0,1-2.168.53223A4.22648,4.22648,0,0,1,188.292,11.15234Zm3.35254-1.26757a2.40425,2.40425,0,0,0,.9375-.94532,3.03371,3.03371,0,0,0,.35938-1.52929,3.10536,3.10536,0,0,0-.34473-1.52246,2.32615,2.32615,0,0,0-.915-.9375,2.50328,2.50328,0,0,0-1.23047-.31543,2.45961,2.45961,0,0,0-1.22168.31543,2.24651,2.24651,0,0,0-.89258.9375,3.21884,3.21884,0,0,0-.33007,1.52246,2.901,2.901,0,0,0,.68261,2.0625,2.25694,2.25694,0,0,0,1.7168.72754A2.54655,2.54655,0,0,0,191.64453,9.88477Z"/>
        <path d="M208.14453,3.55469a2.929,2.929,0,0,1,1.21485,1.20019,3.89406,3.89406,0,0,1,.44238,1.91992v4.875h-1.69531V6.92969a2.39612,2.39612,0,0,0-.55469-1.70215,1.97494,1.97494,0,0,0-1.51465-.59277,1.99913,1.99913,0,0,0-1.52344.59277,2.37655,2.37655,0,0,0-.5625,1.70215V11.5498h-1.69433V6.92969a2.39641,2.39641,0,0,0-.55567-1.70215,1.972,1.972,0,0,0-1.51465-.59277,1.99839,1.99839,0,0,0-1.52246.59277,2.37655,2.37655,0,0,0-.5625,1.70215V11.5498h-1.71V3.28516h1.71v.94433a2.84405,2.84405,0,0,1,1.06446-.79492,3.39066,3.39066,0,0,1,1.38086-.28516,3.678,3.678,0,0,1,1.76953.41993,2.87737,2.87737,0,0,1,1.20019,1.21582,2.76966,2.76966,0,0,1,1.16992-1.19239,3.464,3.464,0,0,1,1.71-.44336A3.715,3.715,0,0,1,208.14453,3.55469Z"/>
      </g>
    </g>
  </g>
</svg>
