<svg xmlns="http://www.w3.org/2000/svg" xmlns:xlink="http://www.w3.org/1999/xlink" viewBox="0 0 417.22022 462.76213">
  <defs>
    <style>
      .cls-1 {
        fill: #94cfe5;
      }

      .cls-2 {
        fill: url(#linear-gradient);
      }

      .cls-3 {
        fill: url(#linear-gradient-2);
      }
    </style>
    <linearGradient id="linear-gradient" x1="228.16228" y1="594.3122" x2="40.29755" y2="268.92095" gradientTransform="translate(124.39524 -172.17592) rotate(9.51883)" gradientUnits="userSpaceOnUse">
      <stop offset="0" stop-color="#7c71bd"/>
      <stop offset="0.38513" stop-color="#ce9fff"/>
      <stop offset="1" stop-color="#ffd371"/>
    </linearGradient>
    <linearGradient id="linear-gradient-2" x1="2.35227" y1="256.19916" x2="364.79192" y2="256.19916" gradientTransform="matrix(1, 0, 0, 1, 0, 0)" xlink:href="#linear-gradient"/>
  </defs>
  <g id="Layer_2" data-name="Layer 2">
    <g id="Layer_2-2" data-name="Layer 2">
      <g>
        <path class="cls-1" d="M232.36607,107.56284c.828,10.59388,1.96168,21.25718,6.49848,29.994,12.71936,24.49458,48.57837,28.233,82.45948,25.08426,28.84679-2.68086,60.67482-10.11792,86.95655-30.20385,8.96387-6.85068,10.01818-18.82811,8.18155-26.89832-10.65269-46.80817-28.78885-60.48333-60.47674-85.19156-14.10728-11-31.51658-20.73174-52.8826-20.33569S253.8209,16.46212,247.05941,37.27149C243.78871,47.3375,231.22079,92.90911,232.36607,107.56284Z"/>
        <path class="cls-2" d="M136.91928,94.2c-35.08446,17.369-71.52189,34.627-99.476,66.66007S-8.281,242.4723,3.90226,282.2888c6.76092,22.09557,21.50993,38.29292,35.83233,53.74918,36.94181,39.8664,74.27218,80.0633,118.43535,108.34062,15.24539,9.76151,31.74677,18.184,49.752,18.38,15.411.1678,30.999-5.72465,45.77949-13.28207,31.83691-16.2785,62.654-42.30509,79.16642-79.19323,12.64822-28.25557,15.8036-60.28481,15.4921-90.86125-.50554-49.62375-9.8029-98.70883-31.36159-138.40222-7.05478-12.98911-16.64246-23.31387-26.60814-33.0876C263.24788,81.31271,200.89564,62.52768,136.91928,94.2Z"/>
        <path class="cls-3" d="M74.813,123.76459c-24.79881,28.914-50.09463,58.22314-63.5523,94.43222C-.72628,250.449-2.65919,288.1157,9.02806,320.75395c5.88418,16.43238,15.55541,31.09747,29.14636,42.16241C52.97986,374.97,70.72571,382.39549,88.003,390.12034c40.11211,17.9345,80.73667,35.77788,123.65214,45.90281a275.74725,275.74725,0,0,0,31.36951,5.72912c10.30688,1.19935,20.8159,1.42448,31.03731-.59739,19.52162-3.86152,34.76676-17.00731,47.41071-31.69714,24.46974-28.42912,41.85427-63.84211,44.077-101.67573,1.245-21.19115-2.47113-42.40912-8.69564-62.61253A347.20885,347.20885,0,0,0,333.08,188.271c-17.32654-33.51374-39.78736-65.27-69.03465-89.43265A122.06549,122.06549,0,0,0,238.8,82.74042a152.189,152.189,0,0,0-22.25836-8.97027,108.99333,108.99333,0,0,0-36.63544-3.84607c-31.37574,1.70246-61.50835,14.51635-85.55777,34.54064A165.78044,165.78044,0,0,0,74.813,123.76459c-1.25345,1.45647.85931,3.58773,2.12132,2.12132,21.644-25.14948,50.66164-43.5895,83.30467-50.37859a125.35335,125.35335,0,0,1,39.469-2.05253c13.68025,1.54463,26.39707,6.41271,38.71372,12.4247,17.10764,8.35056,31.41306,20.92815,44.34206,34.74649a285.59559,285.59559,0,0,1,33.84543,44.66089,379.7494,379.7494,0,0,1,26.35867,50.988c8.26286,19.32211,14.99389,39.50261,18.09419,60.34068a147.62781,147.62781,0,0,1-3.13909,59.68851A172.37858,172.37858,0,0,1,335.1301,386.416a201.43,201.43,0,0,1-16.18516,21.39115c-6.27939,7.24908-13.12089,14.15986-20.98535,19.69669a64.73388,64.73388,0,0,1-26.60584,11.10858c-10.21579,1.72992-20.73784,1.16942-30.96226-.18741-21.05435-2.794-41.7871-8.33776-61.93268-14.96256-20.45648-6.72705-40.45425-14.77488-60.22679-23.284-10.03435-4.3183-20.01632-8.75694-29.9879-13.21786-8.594-3.84466-17.24154-7.60618-25.60763-11.93345-16.19871-8.37862-30.94-19.32967-40.8813-34.86993C3.62088,311.80969.95,274.76622,7.45725,242.42226c7.3897-36.72982,28.65845-67.954,52.23041-96.27693,5.67349-6.817,11.473-13.52755,17.2467-20.25942C78.1851,124.42762,76.0725,122.29613,74.813,123.76459Z"/>
      </g>
    </g>
  </g>
</svg>
