<svg id="Layer_2" data-name="Layer 2" xmlns="http://www.w3.org/2000/svg" xmlns:xlink="http://www.w3.org/1999/xlink" viewBox="0 0 1366 768">
  <defs>
    <style>
      .cls-1 {
        fill: url(#linear-gradient);
      }

      .cls-2 {
        fill: url(#linear-gradient-2);
      }
    </style>
    <linearGradient id="linear-gradient" x1="352.20557" y1="728.38671" x2="164.34084" y2="402.99545" gradientTransform="translate(148.2753 -190.84315) rotate(9.51883)" gradientUnits="userSpaceOnUse">
      <stop offset="0" stop-color="#7c71bd"/>
      <stop offset="0.38513" stop-color="#ce9fff"/>
      <stop offset="1" stop-color="#ffd371"/>
    </linearGradient>
    <linearGradient id="linear-gradient-2" x1="126.39556" y1="390.27366" x2="488.83521" y2="390.27366" gradientTransform="matrix(1, 0, 0, 1, 0, 0)" xlink:href="#linear-gradient"/>
  </defs>
  <path class="cls-1" d="M260.96257,228.27451c-35.08446,17.369-71.52189,34.627-99.476,66.66007s-45.72426,81.61223-33.541,121.42872c6.76092,22.09557,21.50993,38.29292,35.83232,53.74918,36.94182,39.8664,74.27219,80.0633,118.43536,108.34063,15.24539,9.7615,31.74677,18.184,49.752,18.38,15.411.16779,30.999-5.72465,45.77949-13.28208,31.83691-16.2785,62.654-42.30509,79.16642-79.19323,12.64821-28.25557,15.80359-60.2848,15.4921-90.86124-.50554-49.62375-9.80291-98.70884-31.3616-138.40223-7.05478-12.98911-16.64246-23.31387-26.60813-33.0876C387.29117,215.38721,324.93893,196.60219,260.96257,228.27451Z"/>
  <path class="cls-2" d="M198.85633,257.83909c-24.79882,28.914-50.09463,58.22314-63.55231,94.43222-11.987,32.25214-13.91992,69.9189-2.23267,102.55715,5.88418,16.43237,15.5554,31.09747,29.14636,42.1624,14.80544,12.05369,32.55129,19.47913,49.82859,27.204,40.11211,17.9345,80.73666,35.77788,123.65214,45.90281a275.74684,275.74684,0,0,0,31.36951,5.72912c10.30688,1.19935,20.8159,1.42448,31.03731-.59739,19.52161-3.86152,34.76676-17.00731,47.41071-31.69713,24.46973-28.42913,41.85426-63.84212,44.077-101.67573,1.245-21.19116-2.47113-42.40913-8.69564-62.61254a347.20838,347.20838,0,0,0-23.774-56.8985c-17.32654-33.51374-39.78736-65.27-69.03465-89.43266a122.06556,122.06556,0,0,0-25.24535-16.0979,152.18953,152.18953,0,0,0-22.25835-8.97027,108.99333,108.99333,0,0,0-36.63544-3.84607c-31.37575,1.70246-61.50836,14.51635-85.55778,34.54064a165.77959,165.77959,0,0,0-19.53539,19.29987c-1.25345,1.45647.85931,3.58773,2.12132,2.12132,21.644-25.14948,50.66164-43.5895,83.30467-50.37859a125.35393,125.35393,0,0,1,39.469-2.05253c13.68025,1.54463,26.39706,6.41271,38.71372,12.42471,17.10764,8.35056,31.41306,20.92814,44.34206,34.74648a285.59605,285.59605,0,0,1,33.84543,44.66089,379.75054,379.75054,0,0,1,26.35866,50.988c8.26287,19.32211,14.9939,39.50261,18.0942,60.34069a147.62777,147.62777,0,0,1-3.1391,59.6885,172.37805,172.37805,0,0,1-22.79291,50.11192,201.42968,201.42968,0,0,1-16.18515,21.39116c-6.2794,7.24908-13.12089,14.15985-20.98535,19.69668A64.73375,64.73375,0,0,1,395.397,572.68691c-10.21579,1.72992-20.73785,1.16942-30.96226-.1874-21.05435-2.794-41.7871-8.33776-61.93269-14.96257-20.45648-6.727-40.45424-14.77487-60.22678-23.284-10.03435-4.31829-20.01632-8.75694-29.9879-13.21786-8.594-3.84466-17.24154-7.60617-25.60764-11.93345-16.19871-8.37861-30.93995-19.32966-40.88129-34.86993-18.13432-28.34749-20.80524-65.391-14.29794-97.73491,7.3897-36.72983,28.65845-67.954,52.2304-96.27693,5.67349-6.817,11.473-13.52756,17.24671-20.25943C202.22839,258.50212,200.11579,256.37063,198.85633,257.83909Z"/>
</svg>
