<svg id="Layer_2" data-name="Layer 2" xmlns="http://www.w3.org/2000/svg" viewBox="0 0 1366 768">
  <defs>
    <style>
      .cls-1 {
        fill: #94cfe5;
      }

      .cls-2 {
        fill: #ffd371;
      }
    </style>
  </defs>
  <path class="cls-1" d="M1341.84814,511.66052c-10.87052-4.52957-21.96383-8.79251-32.87382-8.72548-30.58726.18792-52.37311,33.68224-66.36544,68.7008-11.91325,29.81524-20.63826,64.97233-14.08391,101.04068,2.23548,12.30176,13.52117,19.38678,22.41071,21.64749,51.5604,13.11241,74.20622,2.11957,114.57729-16.6762,17.973-8.36777,36.36114-20.63359,46.75335-41.91468s8.64038-56.92716-8.47922-74.10056C1395.50592,553.32535,1356.88453,517.92594,1341.84814,511.66052Z"/>
  <path class="cls-2" d="M95.5,592.5c.31634,5.38623,1.79782,16.55011,10,26,14.34285,16.52466,43.45267,21.14459,57,8,16.10992-15.631,8.382-54.6062-15-64-13.39636-5.382-30.44745-.45776-41,10A41.57739,41.57739,0,0,0,95.5,592.5Z"/>
  <path class="cls-2" d="M1142.5,493.5c.31634,5.38623,1.79782,16.55011,10,26,14.34285,16.52466,43.45267,21.14459,57,8,16.10992-15.631,8.382-54.6062-15-64-13.39636-5.382-30.44745-.45776-41,10A41.57739,41.57739,0,0,0,1142.5,493.5Z"/>
  <path class="cls-1" d="M191,150.17a21.9552,21.9552,0,0,0,5.03393,13.08822c7.22009,8.31839,21.87376,10.644,28.69339,4.02714,8.10962-7.86852,4.21945-27.48837-7.55089-32.21714-6.74364-2.70927-15.327-.23043-20.63911,5.03393A20.92975,20.92975,0,0,0,191,150.17Z"/>
</svg>
