<?xml version="1.0" encoding="utf-8"?>
<!-- Generator: Adobe Illustrator 24.2.0, SVG Export Plug-In . SVG Version: 6.00 Build 0)  -->
<svg version="1.1" id="Layer_1" xmlns="http://www.w3.org/2000/svg" xmlns:xlink="http://www.w3.org/1999/xlink" x="0px" y="0px"
	 viewBox="0 0 100 100" style="enable-background:new 0 0 100 100;" xml:space="preserve">
<g id="X35FB1.tif">
	<g>
		<path d="M59.5,30.6c-1,1.8-2.3,3.4-3.8,4.9c-3.5,3.7-7.6,6.9-11.7,9.9C36.6,50.9,29,56.3,21.4,61.6c-0.9,0.7-2,1.2-3.1,1.5
			c-1.2,0.4-2.4,0.3-3.3-0.7c-0.8-0.9-0.6-2.1-0.2-3.1c0.5-1.1,1.2-2.3,2.1-3.2c1.3-1.3,2.7-2.5,4.2-3.6c5.8-4.2,11.6-8.4,17.4-12.6
			c4.2-3.1,8.2-6.2,11.9-9.9c0.3-0.3,0.6-0.7,1-1.1c-2.8-0.2-5.5,0.1-8.2,0.6c-7.3,1.2-14.5,3.2-21.6,5.1c-2.9,0.8-5.9,1.3-8.9,1
			c-4.1-0.4-6.1-3.1-5.3-7.1c0.3-1.5,1-2.9,2-4c2-2.2,4-4.5,6.2-6.5c7.3-6.8,15.9-11.6,25.3-14.7c1.7-0.5,3.4-0.9,5.1-0.8
			c0.5,0.1,1,0.2,1.5,0.4c1.5,0.7,1.9,2.4,0.7,3.6c-0.6,0.7-1.4,1.3-2.2,1.7c-2.3,1.3-4.6,2.7-7,3.7c-7.9,3.5-15,7.9-21,14.2
			c-1.1,1.2-2.1,2.4-3.1,3.6c-0.2,0.2-0.4,0.5-0.7,0.9c0.4,0,0.6,0,0.8,0c2.2-0.6,4.4-1.1,6.6-1.8c5.2-1.8,10.3-3.8,15.6-5.6
			c4.6-1.6,9.4-2.2,14.3-2.1c1.6,0,3.3,0.3,4.8,0.8C60,23.4,61.4,27.2,59.5,30.6z"/>
		<path d="M91,29.9c-0.5,0.5-1,1-1.6,1.3c-3.5,2.2-7.1,4.4-10.7,6.6c-2,1.2-3.9,2.5-5.9,3.8c-0.5,0.3-0.7,0.7-0.8,1.3
			c-0.7,5.7-0.4,11.4,0,17.1c0.4,5.4,0.3,10.9,0.4,16.4c0.1,5,0.1,10.1,0.2,15.1c0,0.2,0,0.4,0,0.6c0,2.3-1.5,4-3.6,4.1
			c-2.1,0.1-3.9-1.4-4-3.8c-0.2-4.1-0.4-8.2-0.3-12.2c0.2-8.4,0-16.8-0.7-25.2c-0.2-2.1-0.1-4.2-0.1-6.4c0-0.3,0-0.6,0-1.1
			c-0.4,0.3-0.7,0.4-1,0.6c-3.6,2.6-7.1,5.3-10.8,7.8c-3.5,2.4-7.2,4.5-10.9,6.7c-1.3,0.7-2.5,0.5-3.2-0.4c-0.7-0.9-0.7-2.2,0.2-3.3
			c0.6-0.8,1.3-1.4,2-2.2c5.6-6.1,12.2-10.9,19.1-15.4c6.5-4.3,13.1-8.5,19.6-12.7c2.2-1.4,4.5-2.7,6.7-4.1c0.5-0.3,1.1-0.6,1.7-0.7
			c1.6-0.4,3.3,0.2,4.1,1.6C92.3,26.9,92.2,28.7,91,29.9z"/>
		<path d="M90.9,79.5c0,1.4-1.2,2.6-2.6,2.6c-1.5,0-2.6-1.2-2.6-2.6c0-1.4,1.2-2.6,2.6-2.6C89.7,76.9,90.9,78,90.9,79.5z"/>
	</g>
</g>
</svg>
